<svg width="360" height="96" viewBox="0 0 360 96" fill="none" xmlns="http://www.w3.org/2000/svg">
  <path
    d="M46.7571 27.4091C47.3026 28.6212 47.6359 30.0303 47.7571 31.6364H73.3026C73.6056 26.9697 72.9541 22.6818 71.3481 18.7727C69.7723 14.8636 67.3935 11.4848 64.2117 8.63635C61.0299 5.75756 57.1965 3.54544 52.7117 1.99999C48.2268 0.424232 43.242 -0.363647 37.7571 -0.363647C31.4844 -0.363647 25.4238 0.696958 19.5753 2.81817C13.7268 4.90908 8.37835 8.01514 3.52987 12.1364C-1.31862 16.2273 -5.42468 21.2424 -8.78832 27.1818C-12.1216 33.1212 -14.4247 39.9394 -15.6974 47.6364C-17.3035 57.4545 -16.7883 65.9242 -14.152 73.0454C-11.4853 80.1667 -7.04589 85.6515 -0.833771 89.5C5.37835 93.3485 12.9996 95.2727 22.0299 95.2727C30.1814 95.2727 37.6662 93.6818 44.4844 90.5C51.3026 87.2879 56.9996 82.6818 61.5753 76.6818C66.1814 70.6515 69.1814 63.3939 70.5753 54.9091L72.6662 42H31.3935L28.4844 60H45.3181C44.8512 62.5976 43.8158 64.8704 42.2117 66.8182C40.5147 68.8788 38.2571 70.4697 35.439 71.5909C32.6208 72.7121 29.2723 73.2727 25.3935 73.2727C21.0602 73.2727 17.6208 72.2424 15.0753 70.1818C12.5602 68.1212 10.9238 65.1515 10.1662 61.2727C9.40865 57.3939 9.48441 52.7273 10.3935 47.2727C11.2723 41.8788 12.8784 37.2727 15.2117 33.4545C17.5753 29.6364 20.4996 26.7121 23.9844 24.6818C27.4693 22.6515 31.3329 21.6364 35.5753 21.6364C37.545 21.6364 39.2571 21.8636 40.7117 22.3182C42.1965 22.7424 43.439 23.3939 44.439 24.2727C45.439 25.1212 46.2117 26.1667 46.7571 27.4091Z"
    fill="white" fill-opacity="0.1" />
  <path fill-rule="evenodd" clip-rule="evenodd"
    d="M116.03 0.909081L69.848 94H97.1208L105.478 76.1818H136.174L138.575 94H165.848L150.575 0.909081H116.03ZM133.626 57.2727L129.484 26.5454H128.757L114.346 57.2727H133.626Z" fill="white"
    fill-opacity="0.1" />
  <path
    d="M174.814 94L190.269 0.909081H221.723L234.632 53.6364H235.723L266.087 0.909081H297.541L282.087 94H257.359L266.269 40.1818H265.541L236.087 93.2727H221.178L209.359 39.8182H208.632L199.541 94H174.814Z"
    fill="white" fill-opacity="0.1" />
  <path d="M309.519 0.909081L294.064 94H360.973L364.428 73.6364H322.791L325.337 57.6364H363.7L367.155 37.2727H328.791L331.337 21.2727H373.155L376.609 0.909081H309.519Z" fill="white"
    fill-opacity="0.1" />
</svg>